<svg width="32" height="32" viewBox="0 0 32 32" fill="none" xmlns="http://www.w3.org/2000/svg">
<path d="M29.125 0.578125H2.875C2.26583 0.578125 1.68161 0.820117 1.25086 1.25086C0.820117 1.68161 0.578125 2.26583 0.578125 2.875V29.125C0.578125 29.7342 0.820117 30.3184 1.25086 30.7491C1.68161 31.1799 2.26583 31.4219 2.875 31.4219H29.125C29.7342 31.4219 30.3184 31.1799 30.7491 30.7491C31.1799 30.3184 31.4219 29.7342 31.4219 29.125V2.875C31.4219 2.26583 31.1799 1.68161 30.7491 1.25086C30.3184 0.820117 29.7342 0.578125 29.125 0.578125ZM29.4531 29.125C29.4531 29.212 29.4186 29.2955 29.357 29.357C29.2955 29.4186 29.212 29.4531 29.125 29.4531H2.875C2.78798 29.4531 2.70452 29.4186 2.64298 29.357C2.58144 29.2955 2.54688 29.212 2.54688 29.125V24.2852L7.89531 18.9367C7.92451 18.9049 7.96001 18.8795 7.99955 18.8621C8.03909 18.8447 8.08181 18.8357 8.125 18.8357C8.16819 18.8357 8.21091 18.8447 8.25045 18.8621C8.28999 18.8795 8.32549 18.9049 8.35469 18.9367L11.7508 22.3328C11.9641 22.5461 12.2173 22.7153 12.496 22.8308C12.7747 22.9462 13.0733 23.0056 13.375 23.0056C13.6767 23.0056 13.9753 22.9462 14.254 22.8308C14.5327 22.7153 14.7859 22.5461 14.9992 22.3328L22.3328 14.9992C22.362 14.9674 22.3975 14.942 22.437 14.9246C22.4766 14.9072 22.5193 14.8982 22.5625 14.8982C22.6057 14.8982 22.6484 14.9072 22.688 14.9246C22.7275 14.942 22.763 14.9674 22.7922 14.9992L29.4531 21.6602V29.125ZM29.4531 18.8711L24.1867 13.6047C23.9734 13.3914 23.7202 13.2222 23.4415 13.1067C23.1628 12.9913 22.8641 12.9319 22.5625 12.9319C22.2609 12.9319 21.9622 12.9913 21.6835 13.1067C21.4048 13.2222 21.1516 13.3914 20.9383 13.6047L13.6047 20.9383C13.5755 20.9701 13.54 20.9955 13.5005 21.0129C13.4609 21.0303 13.4182 21.0393 13.375 21.0393C13.3318 21.0393 13.2891 21.0303 13.2495 21.0129C13.21 20.9955 13.1745 20.9701 13.1453 20.9383L9.74922 17.5422C9.31637 17.1154 8.7329 16.8761 8.125 16.8761C7.5171 16.8761 6.93364 17.1154 6.50078 17.5422L2.54688 21.4961V2.875C2.54688 2.78798 2.58144 2.70452 2.64298 2.64298C2.70452 2.58144 2.78798 2.54688 2.875 2.54688H29.125C29.212 2.54688 29.2955 2.58144 29.357 2.64298C29.4186 2.70452 29.4531 2.78798 29.4531 2.875V18.8711ZM13.0469 10.0938C13.0469 10.5289 12.874 10.9462 12.5663 11.2538C12.2587 11.5615 11.8414 11.7344 11.4062 11.7344C11.1902 11.7366 10.9759 11.6956 10.7758 11.614C10.5758 11.5323 10.394 11.4115 10.2413 11.2587C10.0885 11.106 9.96771 10.9242 9.88604 10.7242C9.80437 10.5241 9.76343 10.3098 9.76562 10.0938C9.76562 9.65863 9.93848 9.24133 10.2462 8.93365C10.5538 8.62598 10.9711 8.45312 11.4062 8.45312C11.8414 8.45312 12.2587 8.62598 12.5663 8.93365C12.874 9.24133 13.0469 9.65863 13.0469 10.0938Z" fill="#1E0C0C"/>
</svg>
