<svg width="47" height="46" viewBox="0 0 47 46" fill="none" xmlns="http://www.w3.org/2000/svg">
<path fill-rule="evenodd" clip-rule="evenodd" d="M27.8908 11.4505C26.6331 7.4518 21.0931 7.4518 19.8353 11.4505C19.656 12.0206 19.1619 12.3617 18.653 12.3617C14.4589 12.3617 12.9415 17.7582 16.1477 20.1646C16.5896 20.4962 16.7969 21.1103 16.6153 21.6876C15.9991 23.6468 16.7895 25.4795 18.1378 26.4914C19.4932 27.5086 21.4841 27.7405 23.1483 26.4914C23.5779 26.169 24.1483 26.169 24.5778 26.4914C26.2421 27.7405 28.233 27.5086 29.5883 26.4914C30.9367 25.4795 31.7271 23.6468 31.1108 21.6876C30.9292 21.1103 31.1366 20.4962 31.5784 20.1646C34.7847 17.7582 33.2672 12.3617 29.0732 12.3617C28.5643 12.3617 28.0702 12.0206 27.8908 11.4505ZM18.653 15.3446C20.5174 15.3446 22.1267 14.1071 22.6808 12.3456C23.0629 11.1307 24.6632 11.1307 25.0454 12.3456C25.5995 14.1071 27.2087 15.3446 29.0732 15.3446C29.65 15.3446 30.0804 15.6994 30.2555 16.2558C30.4315 16.8156 30.2877 17.4037 29.7879 17.7788C28.3097 18.8882 27.7136 20.8284 28.2654 22.5826C28.4691 23.2303 28.2253 23.7849 27.7978 24.1057C27.3773 24.4213 26.8507 24.4677 26.3683 24.1057C24.8779 22.9871 22.8483 22.9871 21.3578 24.1057C20.8754 24.4677 20.3488 24.4213 19.9283 24.1057C19.5009 23.7849 19.2571 23.2303 19.4608 22.5826C20.0126 20.8284 19.4165 18.8882 17.9383 17.7788C17.4385 17.4037 17.2946 16.8156 17.4707 16.2558C17.6457 15.6994 18.0762 15.3446 18.653 15.3446Z" fill="#642F85"/>
<path fill-rule="evenodd" clip-rule="evenodd" d="M23.8631 0.49707C14.2532 0.49707 6.4628 8.28744 6.4628 17.8974C6.4628 20.2331 6.92381 22.4642 7.76062 24.5024C7.18311 25.1709 6.64814 26.0979 5.9279 27.3459L2.29675 33.6353C1.84838 34.4116 1.4338 35.1294 1.19477 35.7237C0.960646 36.3057 0.66579 37.3151 1.31738 38.2493C1.97722 39.1953 3.0364 39.2514 3.66411 39.2202C4.29966 39.1886 5.10759 39.0296 5.97549 38.8587L7.549 38.5492C8.42133 38.3776 8.93888 38.2787 9.32288 38.2523C9.49827 38.2402 9.59243 38.2483 9.63877 38.2561C9.66006 38.2597 9.67006 38.263 9.67262 38.2639C9.67477 38.2647 9.67593 38.2652 9.67846 38.2666C9.68099 38.2681 9.682 38.2688 9.68373 38.2703C9.68579 38.2721 9.69368 38.2791 9.70742 38.2957C9.73733 38.332 9.79144 38.4095 9.86868 38.5674C10.0378 38.9131 10.2109 39.4108 10.4985 40.2521L11.0171 41.7694C11.3031 42.6065 11.5694 43.3858 11.8598 43.952C12.1466 44.5112 12.7248 45.4005 13.874 45.4989C15.0089 45.596 15.7355 44.836 16.1226 44.3422C16.5177 43.8381 16.9321 43.1201 17.3802 42.3436L20.938 36.1813C21.1563 35.8034 21.3553 35.4587 21.5339 35.1429C22.2964 35.245 23.0739 35.2976 23.8631 35.2976C24.4741 35.2976 25.0782 35.2661 25.6737 35.2045C25.8431 35.5032 26.0302 35.8273 26.2342 36.1805L29.7925 42.3436C30.2406 43.1201 30.655 43.8381 31.0501 44.3422C31.4371 44.836 32.1638 45.596 33.2987 45.4989C34.4479 45.4005 35.0261 44.5112 35.3129 43.952C35.6033 43.3858 35.8695 42.6066 36.1555 41.7695L36.6742 40.2521C36.9618 39.4108 37.1349 38.9131 37.304 38.5674C37.3813 38.4095 37.4354 38.332 37.4653 38.2957C37.467 38.2937 37.4686 38.2917 37.4702 38.2899C37.4809 38.2774 37.4872 38.2719 37.489 38.2703L37.4914 38.2684L37.4942 38.2666C37.4968 38.2652 37.4979 38.2647 37.5001 38.2639C37.5026 38.263 37.5126 38.2597 37.5339 38.2561C37.5803 38.2483 37.6744 38.2402 37.8498 38.2523C38.2338 38.2787 38.7514 38.3776 39.6237 38.5492L41.1972 38.8587C42.0651 39.0296 42.873 39.1886 43.5086 39.2202C44.1363 39.2514 45.1955 39.1953 45.8553 38.2493C46.5069 37.3151 46.2121 36.3057 45.9779 35.7237C45.7389 35.1295 45.3244 34.4117 44.876 33.6354L41.2075 27.2812C40.6632 26.3375 40.2221 25.5729 39.771 24.9575C40.7306 22.7983 41.2634 20.4084 41.2634 17.8974C41.2634 8.28744 33.473 0.49707 23.8631 0.49707ZM9.4457 17.8974C9.4457 9.93486 15.9006 3.47998 23.8631 3.47998C31.8256 3.47998 38.2805 9.93486 38.2805 17.8974C38.2805 20.2811 37.7031 22.5257 36.6819 24.503C34.6371 28.4623 30.8132 31.3504 26.2749 32.1141C25.4916 32.246 24.6859 32.3147 23.8631 32.3147C22.9009 32.3147 21.9622 32.2207 21.0552 32.0418C16.6104 31.1649 12.8943 28.2411 10.9361 24.2893C9.98248 22.3647 9.4457 20.1958 9.4457 17.8974ZM8.42454 28.9874C8.8016 28.3344 9.08808 27.841 9.32235 27.4576C11.4734 30.723 14.6955 33.2216 18.4918 34.4524L14.8483 40.7632C14.5881 41.2139 14.3808 41.571 14.2075 41.855C14.0965 41.5531 13.9671 41.1772 13.8059 40.7057L13.2946 39.21C13.0425 38.4721 12.8101 37.7921 12.5482 37.2567C12.2591 36.6656 11.8559 36.0794 11.1699 35.6834C10.4839 35.2873 9.77466 35.2313 9.11824 35.2764C8.52366 35.3173 7.81855 35.456 7.0535 35.6066L5.5024 35.9117C5.01349 36.0079 4.62323 36.0837 4.30632 36.1385C4.46556 35.8465 4.67124 35.4884 4.93145 35.0377L8.42454 28.9874ZM28.7646 34.5974C32.5931 33.4756 35.8719 31.0745 38.1093 27.8904C38.2898 28.1955 38.4994 28.5566 38.7482 28.9874L42.2412 35.0377C42.5015 35.4884 42.7071 35.8465 42.8664 36.1385C42.5495 36.0837 42.1592 36.0079 41.6703 35.9117L40.1194 35.6067C39.3543 35.4561 38.6491 35.3173 38.0545 35.2764C37.398 35.2313 36.6888 35.2873 36.0028 35.6834C35.3168 36.0794 34.9136 36.6656 34.6245 37.2567C34.3626 37.7921 34.1302 38.4721 33.8781 39.21L33.3668 40.7057C33.2056 41.1772 33.0761 41.5531 32.9651 41.855C32.7919 41.571 32.5846 41.2139 32.3244 40.7632L28.7646 34.5974Z" fill="#642F85"/>
</svg>
