<svg width="33" height="33" viewBox="0 0 33 33" fill="none" xmlns="http://www.w3.org/2000/svg">
<path d="M28.775 11.6188L21.3375 4.26875L23.7875 1.81875C24.4583 1.14792 25.2826 0.8125 26.2603 0.8125C27.2368 0.8125 28.0604 1.14792 28.7312 1.81875L31.1812 4.26875C31.8521 4.93958 32.2021 5.74925 32.2312 6.69775C32.2604 7.64508 31.9396 8.45417 31.2688 9.125L28.775 11.6188ZM2 32.75C1.50417 32.75 1.08883 32.582 0.754 32.246C0.418 31.9112 0.25 31.4958 0.25 31V26.0562C0.25 25.8229 0.29375 25.5972 0.38125 25.379C0.46875 25.1597 0.6 24.9625 0.775 24.7875L18.8 6.7625L26.2375 14.2L8.2125 32.225C8.0375 32.4 7.84092 32.5312 7.62275 32.6187C7.40342 32.7062 7.17708 32.75 6.94375 32.75H2Z" fill="#1954AC"/>
</svg>
