<svg width="36" height="36" viewBox="0 0 36 36" fill="none" xmlns="http://www.w3.org/2000/svg">
<path d="M18 0.9375C14.6254 0.9375 11.3265 1.9382 8.52059 3.81305C5.71468 5.6879 3.52773 8.3527 2.23631 11.4705C0.944893 14.5882 0.606999 18.0189 1.26536 21.3287C1.92372 24.6385 3.54876 27.6788 5.935 30.065C8.32123 32.4512 11.3615 34.0763 14.6713 34.7346C17.9811 35.393 21.4118 35.0551 24.5295 33.7637C27.6473 32.4723 30.3121 30.2853 32.187 27.4794C34.0618 24.6735 35.0625 21.3746 35.0625 18C35.0538 13.4774 33.2534 9.14253 30.0554 5.94457C26.8575 2.74661 22.5226 0.946172 18 0.9375ZM18 32.4375C15.1445 32.4375 12.3532 31.5908 9.97896 30.0043C7.60473 28.4179 5.75424 26.1631 4.6615 23.525C3.56876 20.8869 3.28285 17.984 3.83992 15.1834C4.39699 12.3828 5.77203 9.81027 7.79115 7.79115C9.81027 5.77203 12.3828 4.39699 15.1834 3.83991C17.984 3.28284 20.8869 3.56875 23.525 4.66149C26.1631 5.75423 28.4179 7.60472 30.0044 9.97895C31.5908 12.3532 32.4375 15.1445 32.4375 18C32.4332 21.8277 30.9107 25.4974 28.2041 28.2041C25.4974 30.9107 21.8277 32.4332 18 32.4375ZM10.125 14.7188C10.125 14.3294 10.2405 13.9487 10.4568 13.625C10.6731 13.3012 10.9806 13.0489 11.3403 12.8999C11.7001 12.7509 12.0959 12.7119 12.4778 12.7878C12.8597 12.8638 13.2105 13.0513 13.4859 13.3266C13.7612 13.602 13.9487 13.9528 14.0247 14.3347C14.1006 14.7166 14.0617 15.1124 13.9126 15.4722C13.7636 15.8319 13.5113 16.1394 13.1875 16.3557C12.8638 16.572 12.4831 16.6875 12.0938 16.6875C11.5716 16.6875 11.0709 16.4801 10.7016 16.1109C10.3324 15.7417 10.125 15.2409 10.125 14.7188ZM21.9375 14.7188C21.9375 14.3294 22.053 13.9487 22.2693 13.625C22.4856 13.3012 22.7931 13.0489 23.1529 12.8999C23.5126 12.7509 23.9084 12.7119 24.2903 12.7878C24.6722 12.8638 25.023 13.0513 25.2984 13.3266C25.5737 13.602 25.7612 13.9528 25.8372 14.3347C25.9131 14.7166 25.8742 15.1124 25.7251 15.4722C25.5761 15.8319 25.3238 16.1394 25 16.3557C24.6763 16.572 24.2956 16.6875 23.9063 16.6875C23.3841 16.6875 22.8834 16.4801 22.5141 16.1109C22.1449 15.7417 21.9375 15.2409 21.9375 14.7188ZM25.957 22.5938C25.1507 23.9906 23.9909 25.1506 22.5941 25.9571C21.1974 26.7636 19.6129 27.1882 18 27.1882C16.3871 27.1882 14.8027 26.7636 13.4059 25.9571C12.0091 25.1506 10.8493 23.9906 10.043 22.5938C9.94026 22.4447 9.86947 22.2761 9.83506 22.0984C9.80065 21.9207 9.80336 21.7378 9.84303 21.5612C9.8827 21.3846 9.95846 21.2181 10.0656 21.0722C10.1727 20.9263 10.3088 20.8041 10.4654 20.7134C10.6219 20.6226 10.7956 20.5652 10.9755 20.5448C11.1553 20.5243 11.3374 20.5413 11.5104 20.5946C11.6833 20.648 11.8434 20.7365 11.9805 20.8547C12.1176 20.9728 12.2288 21.1181 12.307 21.2812C12.8851 22.2792 13.7153 23.1078 14.7145 23.6837C15.7137 24.2597 16.8467 24.5629 18 24.5629C19.1533 24.5629 20.2864 24.2597 21.2855 23.6837C22.2847 23.1078 23.115 22.2792 23.693 21.2812C23.8805 21.0092 24.1636 20.818 24.486 20.7456C24.8083 20.6731 25.1461 20.725 25.4319 20.8906C25.7177 21.0563 25.9305 21.3237 26.0278 21.6394C26.1252 21.9551 26.0999 22.2959 25.957 22.5938Z" fill="#1E0C0C"/>
</svg>
