<svg width="20" height="10" viewBox="0 0 20 10" fill="none" xmlns="http://www.w3.org/2000/svg">
<path d="M19.4875 6.35625C19.5597 6.48608 19.5786 6.63891 19.5401 6.78239C19.5016 6.92587 19.4088 7.04874 19.2813 7.125C19.1965 7.176 19.099 7.202 19 7.2C18.9012 7.20006 18.8042 7.1741 18.7186 7.12473C18.633 7.07535 18.5619 7.00431 18.5125 6.91875L16.6844 3.75937C15.5965 4.51702 14.3845 5.0786 13.1032 5.41875L13.675 8.68125C13.6995 8.82789 13.6649 8.97825 13.5788 9.09947C13.4927 9.22068 13.3622 9.30289 13.2157 9.32812H13.1219C12.9887 9.32968 12.8595 9.28312 12.7578 9.19701C12.6562 9.1109 12.5891 8.99101 12.5688 8.85937L11.9969 5.64375C11.337 5.75417 10.6691 5.81061 10 5.8125C9.32808 5.81368 8.65713 5.76038 7.99379 5.65312L7.42191 8.86875C7.3998 8.99956 7.33216 9.11835 7.23095 9.20413C7.12973 9.2899 7.00146 9.33714 6.86879 9.3375H6.77504C6.62852 9.31227 6.49796 9.23006 6.41188 9.10884C6.3258 8.98763 6.2912 8.83727 6.31566 8.69062L6.88754 5.42812C5.60837 5.08197 4.39736 4.52085 3.30629 3.76875L1.47816 6.9375C1.42876 7.02306 1.3577 7.0941 1.27212 7.14348C1.18654 7.19285 1.08946 7.21881 0.990661 7.21875C0.892176 7.21721 0.795584 7.19145 0.709411 7.14375C0.645361 7.10684 0.589213 7.05767 0.544178 6.99906C0.499143 6.94044 0.466103 6.87352 0.446948 6.80212C0.427793 6.73072 0.422898 6.65625 0.432544 6.58296C0.442189 6.50968 0.466186 6.439 0.503161 6.375L2.40629 3.06562C1.73224 2.49755 1.11382 1.86657 0.559411 1.18125C0.466171 1.06438 0.423173 0.91527 0.439875 0.766706C0.456578 0.618142 0.531613 0.482299 0.648474 0.389059C0.765335 0.295818 0.914449 0.25282 1.06301 0.269522C1.21158 0.286225 1.34742 0.36126 1.44066 0.478121C2.03345 1.2191 2.7098 1.88916 3.45629 2.475L3.49379 2.49375C5.35331 3.93738 7.64602 4.71043 10 4.6875C12.354 4.71043 14.6468 3.93738 16.5063 2.49375L16.5344 2.475C17.2859 1.89166 17.9656 1.22137 18.5594 0.478121C18.6527 0.36126 18.7885 0.286225 18.9371 0.269522C19.0856 0.25282 19.2347 0.295818 19.3516 0.389059C19.4685 0.482299 19.5435 0.618142 19.5602 0.766706C19.5769 0.91527 19.5339 1.06438 19.4407 1.18125C18.8832 1.86978 18.2617 2.50387 17.5844 3.075L19.4875 6.35625Z" fill="#1E0C0C"/>
</svg>
