<svg width="13" height="22" viewBox="0 0 13 22" fill="none" xmlns="http://www.w3.org/2000/svg">
<path d="M12.2066 11.0705C12.2066 11.3141 12.1629 11.5499 12.0754 11.7777C11.9879 12.0067 11.8712 12.1974 11.7254 12.3497L3.67539 20.756C3.35456 21.091 2.94622 21.2585 2.45039 21.2585C1.95456 21.2585 1.54622 21.091 1.22539 20.756C0.904557 20.421 0.744141 19.9946 0.744141 19.4768C0.744141 18.959 0.904557 18.5326 1.22539 18.1976L8.05039 11.0705L1.22539 3.94338C0.904557 3.60834 0.744141 3.18193 0.744141 2.66415C0.744141 2.14637 0.904557 1.71997 1.22539 1.38494C1.54622 1.0499 1.95456 0.882381 2.45039 0.882381C2.94622 0.882381 3.35456 1.0499 3.67539 1.38494L11.7254 9.79124C11.9004 9.97399 12.0241 10.172 12.0964 10.3852C12.1699 10.5984 12.2066 10.8268 12.2066 11.0705Z" fill="#1E0C0C"/>
</svg>
