<svg width="18" height="22" viewBox="0 0 18 22" fill="none" xmlns="http://www.w3.org/2000/svg">
<path d="M11.25 9.5C11.25 8.90326 11.0129 8.33097 10.591 7.90901C10.169 7.48705 9.59674 7.25 9 7.25C8.40326 7.25 7.83097 7.48705 7.40901 7.90901C6.98705 8.33097 6.75 8.90326 6.75 9.5C6.75 10.0967 6.98705 10.669 7.40901 11.091C7.83097 11.5129 8.40326 11.75 9 11.75C9.59674 11.75 10.169 11.5129 10.591 11.091C11.0129 10.669 11.25 10.0967 11.25 9.5ZM18 9.5C18 13.811 13.3545 18.524 10.7385 20.837C10.2602 21.2642 9.64131 21.5003 9 21.5003C8.35869 21.5003 7.73983 21.2642 7.2615 20.837C4.6455 18.524 0 13.811 0 9.5C-1.76116e-08 8.3181 0.232792 7.14778 0.685084 6.05585C1.13738 4.96392 1.80031 3.97177 2.63604 3.13604C3.47177 2.30031 4.46392 1.63738 5.55585 1.18508C6.64778 0.732792 7.8181 0.5 9 0.5C10.1819 0.5 11.3522 0.732792 12.4442 1.18508C13.5361 1.63738 14.5282 2.30031 15.364 3.13604C16.1997 3.97177 16.8626 4.96392 17.3149 6.05585C17.7672 7.14778 18 8.3181 18 9.5ZM16.5 9.5C16.5 7.51088 15.7098 5.60322 14.3033 4.1967C12.8968 2.79018 10.9891 2 9 2C7.01088 2 5.10322 2.79018 3.6967 4.1967C2.29018 5.60322 1.5 7.51088 1.5 9.5C1.5 11.162 2.4225 13.0925 3.855 15.0245C5.256 16.9115 6.9855 18.59 8.2545 19.7135C8.45868 19.8986 8.72441 20.0011 9 20.0011C9.27559 20.0011 9.54132 19.8986 9.7455 19.7135C11.0145 18.59 12.7455 16.913 14.145 15.0245C15.5775 13.0925 16.5 11.162 16.5 9.5Z" fill="#1E0C0C"/>
</svg>
