<svg width="28" height="35" viewBox="0 0 28 35" fill="none" xmlns="http://www.w3.org/2000/svg">
<path d="M14.25 17.75H26.5M26.5 17.75L21.25 23M26.5 17.75L21.25 12.5M26.5 7.25V5.5C26.5 4.57174 26.1312 3.6815 25.4749 3.02513C24.8185 2.36875 23.9282 2 23 2H5.5C4.57174 2 3.6815 2.36875 3.02513 3.02513C2.36875 3.6815 2 4.57174 2 5.5V30C2 30.9283 2.36875 31.8185 3.02513 32.4749C3.6815 33.1313 4.57174 33.5 5.5 33.5H23C23.9282 33.5 24.8185 33.1313 25.4749 32.4749C26.1312 31.8185 26.5 30.9283 26.5 30V28.25" stroke="#C12026" stroke-width="3" stroke-linecap="round" stroke-linejoin="round"/>
</svg>
