<svg width="45" height="38" viewBox="0 0 45 38" fill="none" xmlns="http://www.w3.org/2000/svg">
<path opacity="0.8" fill-rule="evenodd" clip-rule="evenodd" d="M20.2998 9.14945C15.7368 0.987354 0.0498047 3.83585 0.0498047 15.6295C0.0498047 23.5081 6.7998 30.7009 20.2998 37.2106C33.7998 30.7036 40.5498 23.5081 40.5498 15.6295C40.5498 3.83585 24.8628 0.987354 20.2998 9.14945Z" fill="#0FA958"/>
<path fill-rule="evenodd" clip-rule="evenodd" d="M34.4962 3.51191C38.5084 4.55411 41.8996 7.75902 41.8996 12.9295C41.8996 19.8415 36.046 26.605 22.9996 33.0094C9.95321 26.605 4.09961 19.8415 4.09961 12.9295C4.09961 7.75902 7.49081 4.55411 11.503 3.51191C15.5989 2.44811 19.927 3.72252 21.8197 7.10831C21.9369 7.31802 22.1078 7.49266 22.315 7.61423C22.5222 7.7358 22.7581 7.79989 22.9983 7.79989C23.2385 7.79989 23.4743 7.7358 23.6815 7.61423C23.8887 7.49266 24.0597 7.31802 24.1768 7.10831C26.0695 3.72252 30.4003 2.44811 34.4962 3.51191ZM22.9996 4.11132C25.9696 0.701215 30.916 -0.208685 35.1766 0.898315C40.1446 2.19161 44.5996 6.30912 44.5996 12.9295C44.5996 21.6694 37.1287 29.197 23.5855 35.7283C23.4027 35.8164 23.2025 35.8621 22.9996 35.8621C22.7967 35.8621 22.5965 35.8164 22.4137 35.7283C8.87051 29.1943 1.39961 21.6694 1.39961 12.9295C1.39961 6.30641 5.85461 2.19161 10.8226 0.898315C15.0832 -0.208685 20.0296 0.701215 22.9996 4.11132Z" fill="#0FA958"/>
</svg>
