<svg width="13" height="22" viewBox="0 0 13 22" fill="none" xmlns="http://www.w3.org/2000/svg">
<path d="M0.793357 11.0705C0.793357 11.3141 0.837108 11.5499 0.924608 11.7777C1.01211 12.0067 1.12877 12.1974 1.27461 12.3497L9.32461 20.756C9.64544 21.091 10.0538 21.2585 10.5496 21.2585C11.0454 21.2585 11.4538 21.091 11.7746 20.756C12.0954 20.421 12.2559 19.9946 12.2559 19.4768C12.2559 18.959 12.0954 18.5326 11.7746 18.1976L4.94961 11.0705L11.7746 3.94338C12.0954 3.60834 12.2559 3.18193 12.2559 2.66415C12.2559 2.14637 12.0954 1.71997 11.7746 1.38494C11.4538 1.0499 11.0454 0.882381 10.5496 0.882381C10.0538 0.882381 9.64544 1.0499 9.32461 1.38494L1.27461 9.79124C1.09961 9.97399 0.975942 10.172 0.903608 10.3852C0.830108 10.5984 0.793357 10.8268 0.793357 11.0705Z" fill="#1E0C0C"/>
</svg>
