<svg width="36" height="35" viewBox="0 0 36 35" fill="none" xmlns="http://www.w3.org/2000/svg">
<path d="M2.68497 1.15956L34.29 16.2751C34.6094 16.4276 34.8792 16.6674 35.068 16.9669C35.2568 17.2663 35.357 17.6131 35.357 17.9671C35.357 18.3211 35.2568 18.6678 35.068 18.9672C34.8792 19.2667 34.6094 19.5065 34.29 19.6591L2.68497 34.7746C2.36097 34.9297 1.99921 34.9886 1.64274 34.9441C1.28626 34.8996 0.950069 34.7536 0.674168 34.5235C0.398266 34.2935 0.194269 33.989 0.0864456 33.6463C-0.0213773 33.3036 -0.0284859 32.9372 0.0659657 32.5906L4.05597 17.9671L0.0659657 3.34356C-0.0284859 2.99695 -0.0213773 2.63051 0.0864456 2.28783C0.194269 1.94515 0.398266 1.64065 0.674168 1.41058C0.950069 1.1805 1.28626 1.03453 1.64274 0.990029C1.99921 0.945527 2.36097 1.00437 2.68497 1.15956ZM2.45247 3.54306L6.08697 16.8736L22.5 16.8751C22.772 16.8751 23.0349 16.9738 23.2398 17.1528C23.4447 17.3318 23.5778 17.579 23.6145 17.8486L23.625 18.0001C23.625 18.2719 23.5265 18.5346 23.3478 18.7395C23.1691 18.9443 22.9223 19.0776 22.653 19.1146L22.5 19.1251H6.06897L2.45397 32.3911L32.613 17.9671L2.45247 3.54306Z" fill="#1E0C0C"/>
</svg>
