<svg width="45" height="44" viewBox="0 0 45 44" fill="none" xmlns="http://www.w3.org/2000/svg">
<path d="M22.5 0.0625C26.8388 0.0625 31.0802 1.34911 34.6878 3.75964C38.2954 6.17016 41.1072 9.59633 42.7676 13.6049C44.428 17.6134 44.8624 22.0243 44.016 26.2798C43.1695 30.5353 41.0802 34.4441 38.0121 37.5122C34.9441 40.5802 31.0352 42.6695 26.7798 43.516C22.5243 44.3624 18.1134 43.928 14.1049 42.2676C10.0963 40.6072 6.67015 37.7954 4.25963 34.1878C1.84911 30.5802 0.562492 26.3388 0.562492 22C0.573643 16.1852 2.88849 10.6118 7.00016 6.50016C11.1118 2.3885 16.6852 0.0736501 22.5 0.0625ZM30.0937 15.25C29.5931 15.25 29.1037 15.3985 28.6875 15.6766C28.2712 15.9547 27.9468 16.3501 27.7552 16.8126C27.5636 17.2751 27.5135 17.7841 27.6111 18.2751C27.7088 18.7661 27.9499 19.2171 28.3039 19.5711C28.6579 19.9251 29.1089 20.1662 29.5999 20.2639C30.0909 20.3615 30.5999 20.3114 31.0624 20.1198C31.5249 19.9282 31.9203 19.6038 32.1984 19.1875C32.4765 18.7713 32.625 18.2819 32.625 17.7812C32.625 17.1099 32.3583 16.4661 31.8836 15.9914C31.4089 15.5167 30.7651 15.25 30.0937 15.25ZM12.2695 27.9062C13.3062 29.7022 14.7974 31.1937 16.5933 32.2306C18.3891 33.2675 20.4263 33.8134 22.5 33.8134C24.5737 33.8134 26.6109 33.2675 28.4067 32.2306C30.2026 31.1937 31.6938 29.7022 32.7305 27.9062C32.8625 27.7146 32.9535 27.4978 32.9978 27.2693C33.042 27.0409 33.0385 26.8057 32.9875 26.5787C32.9365 26.3516 32.8391 26.1376 32.7014 25.95C32.5637 25.7624 32.3887 25.6053 32.1874 25.4886C31.9861 25.3719 31.7628 25.2981 31.5316 25.2718C31.3003 25.2456 31.0662 25.2674 30.8438 25.336C30.6214 25.4045 30.4157 25.5183 30.2394 25.6703C30.0631 25.8222 29.9202 26.0089 29.8195 26.2187C29.0763 27.5019 28.0089 28.5671 26.7242 29.3076C25.4396 30.0482 23.9828 30.438 22.5 30.438C21.0172 30.438 19.5604 30.0482 18.2757 29.3076C16.9911 28.5671 15.9236 27.5019 15.1805 26.2187C14.9394 25.869 14.5753 25.6231 14.1609 25.53C13.7465 25.4369 13.3122 25.5035 12.9447 25.7165C12.5773 25.9296 12.3036 26.2733 12.1785 26.6792C12.0533 27.0851 12.0858 27.5233 12.2695 27.9062ZM11.5312 19.4687H18.2812C18.7288 19.4687 19.158 19.291 19.4745 18.9745C19.791 18.658 19.9687 18.2288 19.9687 17.7812C19.9687 17.3337 19.791 16.9045 19.4745 16.588C19.158 16.2715 18.7288 16.0937 18.2812 16.0937H11.5312C11.0837 16.0937 10.6545 16.2715 10.338 16.588C10.0215 16.9045 9.84374 17.3337 9.84374 17.7812C9.84374 18.2288 10.0215 18.658 10.338 18.9745C10.6545 19.291 11.0837 19.4687 11.5312 19.4687Z" fill="#D5B91F"/>
</svg>
